<svg width="90" height="56" viewBox="0 0 90 56" fill="none" xmlns="http://www.w3.org/2000/svg">
<rect width="90" height="56" fill="white"/>
<g clip-path="url(#clip0_4562_7642)">
<path d="M46.2495 35.4993V30.9992C46.2495 30.8003 46.1704 30.6095 46.0298 30.4689C45.8891 30.3282 45.6984 30.2492 45.4995 30.2492H42.4995C42.3005 30.2492 42.1098 30.3282 41.9691 30.4689C41.8285 30.6095 41.7495 30.8003 41.7495 30.9992V35.4993C41.7495 35.6982 41.6704 35.889 41.5298 36.0296C41.3892 36.1703 41.1984 36.2493 40.9995 36.2493L36.5001 36.2499C36.4016 36.2499 36.3041 36.2305 36.2131 36.1928C36.122 36.1551 36.0394 36.0999 35.9697 36.0303C35.9 35.9606 35.8448 35.8779 35.8071 35.7869C35.7694 35.6959 35.75 35.5984 35.75 35.4999V26.8317C35.75 26.7272 35.7718 26.6239 35.8141 26.5283C35.8564 26.4328 35.9181 26.3471 35.9954 26.2768L43.4949 19.4579C43.633 19.3324 43.8129 19.2629 43.9995 19.2628C44.186 19.2628 44.3659 19.3324 44.504 19.4579L52.0045 26.2768C52.0818 26.3471 52.1436 26.4328 52.1859 26.5284C52.2282 26.6239 52.25 26.7273 52.25 26.8318V35.4999C52.25 35.5984 52.2306 35.6959 52.1929 35.7869C52.1552 35.8779 52.1 35.9606 52.0303 36.0303C51.9606 36.0999 51.878 36.1552 51.7869 36.1928C51.6959 36.2305 51.5984 36.2499 51.4999 36.2499L46.9994 36.2493C46.8005 36.2493 46.6097 36.1703 46.4691 36.0296C46.3285 35.889 46.2494 35.6982 46.2495 35.4993V35.4993Z" stroke="#B6B6B6" stroke-width="2" stroke-linecap="round" stroke-linejoin="round"/>
</g>
<defs>
<clipPath id="clip0_4562_7642">
<rect width="24" height="24" fill="white" transform="translate(32 16)"/>
</clipPath>
</defs>
</svg>
