<svg width="254" height="38" viewBox="0 0 254 38" fill="none" xmlns="http://www.w3.org/2000/svg">
<path d="M90.3118 13L91.152 10.4893H94.9801L95.8253 13H97.794L94.2045 2.81818H91.9276L88.343 13H90.3118ZM91.6491 9.00781L93.0263 4.90625H93.1058L94.483 9.00781H91.6491ZM104.92 5.36364H103.006L101.246 11.0362H101.166L99.411 5.36364H97.492L100.211 13H102.2L104.92 5.36364ZM109.286 13.1491C111.066 13.1491 112.289 12.2791 112.607 10.9517L110.926 10.7628C110.683 11.4091 110.086 11.7472 109.311 11.7472C108.147 11.7472 107.377 10.9815 107.362 9.67401H112.681V9.12216C112.681 6.44247 111.071 5.2642 109.191 5.2642C107.004 5.2642 105.577 6.87003 105.577 9.22656C105.577 11.6229 106.984 13.1491 109.286 13.1491ZM107.367 8.46094C107.422 7.48651 108.142 6.66619 109.216 6.66619C110.25 6.66619 110.946 7.42188 110.956 8.46094H107.367ZM114.204 13H116.004V8.51065C116.004 7.54119 116.735 6.85511 117.724 6.85511C118.027 6.85511 118.405 6.9098 118.559 6.95952V5.30398C118.395 5.27415 118.112 5.25426 117.913 5.25426C117.038 5.25426 116.307 5.75142 116.029 6.63636H115.949V5.36364H114.204V13ZM121.802 13.1541C123 13.1541 123.716 12.5923 124.044 11.951H124.104V13H125.834V7.8892C125.834 5.87074 124.188 5.2642 122.732 5.2642C121.126 5.2642 119.893 5.98011 119.495 7.37216L121.175 7.6108C121.354 7.08878 121.862 6.64134 122.741 6.64134C123.577 6.64134 124.034 7.06889 124.034 7.8196V7.84943C124.034 8.36648 123.492 8.39134 122.145 8.53551C120.663 8.6946 119.246 9.13707 119.246 10.8572C119.246 12.3587 120.345 13.1541 121.802 13.1541ZM122.269 11.8317C121.518 11.8317 120.982 11.4886 120.982 10.8274C120.982 10.1364 121.583 9.84801 122.388 9.73366C122.861 9.66903 123.805 9.54972 124.039 9.3608V10.2607C124.039 11.1108 123.353 11.8317 122.269 11.8317ZM130.964 16.0227C133.028 16.0227 134.549 15.0781 134.549 13.1243V5.36364H132.774V6.62642H132.675C132.401 6.07457 131.83 5.2642 130.482 5.2642C128.717 5.2642 127.33 6.64631 127.33 9.15696C127.33 11.6477 128.717 12.8906 130.477 12.8906C131.785 12.8906 132.396 12.1896 132.675 11.6278H132.764V13.0746C132.764 14.1982 132.018 14.6605 130.994 14.6605C129.911 14.6605 129.433 14.1484 129.214 13.701L127.594 14.0938C127.922 15.1626 129.021 16.0227 130.964 16.0227ZM130.979 11.4787C129.791 11.4787 129.165 10.554 129.165 9.14702C129.165 7.75994 129.781 6.74077 130.979 6.74077C132.138 6.74077 132.774 7.70028 132.774 9.14702C132.774 10.6037 132.128 11.4787 130.979 11.4787ZM139.774 13.1491C141.554 13.1491 142.777 12.2791 143.095 10.9517L141.415 10.7628C141.171 11.4091 140.575 11.7472 139.799 11.7472C138.636 11.7472 137.865 10.9815 137.85 9.67401H143.17V9.12216C143.17 6.44247 141.559 5.2642 139.68 5.2642C137.492 5.2642 136.065 6.87003 136.065 9.22656C136.065 11.6229 137.472 13.1491 139.774 13.1491ZM137.855 8.46094C137.91 7.48651 138.631 6.66619 139.705 6.66619C140.739 6.66619 141.435 7.42188 141.445 8.46094H137.855ZM148.244 13H150.089V9.27131H151.968L153.967 13H156.025L153.823 8.96307C155.021 8.48082 155.652 7.45668 155.652 6.07457C155.652 4.13068 154.399 2.81818 152.063 2.81818H148.244V13ZM150.089 7.74006V4.35938H151.779C153.156 4.35938 153.773 4.99077 153.773 6.07457C153.773 7.15838 153.156 7.74006 151.789 7.74006H150.089ZM159.468 13.1541C160.666 13.1541 161.382 12.5923 161.71 11.951H161.77V13H163.5V7.8892C163.5 5.87074 161.854 5.2642 160.398 5.2642C158.792 5.2642 157.559 5.98011 157.161 7.37216L158.841 7.6108C159.02 7.08878 159.528 6.64134 160.407 6.64134C161.243 6.64134 161.7 7.06889 161.7 7.8196V7.84943C161.7 8.36648 161.158 8.39134 159.811 8.53551C158.329 8.6946 156.912 9.13707 156.912 10.8572C156.912 12.3587 158.011 13.1541 159.468 13.1541ZM159.935 11.8317C159.184 11.8317 158.648 11.4886 158.648 10.8274C158.648 10.1364 159.249 9.84801 160.055 9.73366C160.527 9.66903 161.471 9.54972 161.705 9.3608V10.2607C161.705 11.1108 161.019 11.8317 159.935 11.8317ZM169.123 5.36364H167.616V3.53409H165.817V5.36364H164.733V6.75568H165.817V11.0014C165.807 12.4382 166.851 13.1442 168.203 13.1044C168.715 13.0895 169.068 12.9901 169.262 12.9254L168.959 11.5185C168.859 11.5433 168.655 11.5881 168.432 11.5881C167.979 11.5881 167.616 11.429 167.616 10.7031V6.75568H169.123V5.36364ZM170.628 13H172.428V5.36364H170.628V13ZM171.533 4.27983C172.104 4.27983 172.572 3.84233 172.572 3.3054C172.572 2.76349 172.104 2.32599 171.533 2.32599C170.956 2.32599 170.489 2.76349 170.489 3.3054C170.489 3.84233 170.956 4.27983 171.533 4.27983ZM176.078 8.52557C176.078 7.42188 176.744 6.78551 177.694 6.78551C178.623 6.78551 179.18 7.39702 179.18 8.41619V13H180.98V8.13778C180.985 6.30824 179.941 5.2642 178.365 5.2642C177.221 5.2642 176.436 5.81108 176.088 6.66122H175.998V5.36364H174.278V13H176.078V8.52557ZM186.131 16.0227C188.194 16.0227 189.715 15.0781 189.715 13.1243V5.36364H187.94V6.62642H187.841C187.567 6.07457 186.996 5.2642 185.648 5.2642C183.883 5.2642 182.496 6.64631 182.496 9.15696C182.496 11.6477 183.883 12.8906 185.643 12.8906C186.951 12.8906 187.562 12.1896 187.841 11.6278H187.93V13.0746C187.93 14.1982 187.184 14.6605 186.16 14.6605C185.077 14.6605 184.599 14.1484 184.381 13.701L182.76 14.0938C183.088 15.1626 184.187 16.0227 186.131 16.0227ZM186.145 11.4787C184.957 11.4787 184.331 10.554 184.331 9.14702C184.331 7.75994 184.947 6.74077 186.145 6.74077C187.304 6.74077 187.94 7.70028 187.94 9.14702C187.94 10.6037 187.294 11.4787 186.145 11.4787Z" fill="#171520"/>
<path d="M88.7656 32.0114H93.593V34H95.0597V32.0114H96.407V30.7088H95.0597V23.8182H93.1655L88.7656 30.7685V32.0114ZM93.603 30.7088H90.3764V30.6293L93.5234 25.6477H93.603V30.7088ZM101.684 34.1392C103.762 34.1392 105.289 32.8963 105.284 31.206C105.289 29.9183 104.508 28.9936 103.156 28.7848V28.7053C104.22 28.4318 104.911 27.5966 104.906 26.4531C104.911 24.9567 103.683 23.679 101.724 23.679C99.8548 23.679 98.3533 24.8075 98.3036 26.4631H99.7901C99.8249 25.5284 100.705 24.9616 101.704 24.9616C102.743 24.9616 103.424 25.593 103.419 26.5327C103.424 27.517 102.634 28.1634 101.505 28.1634H100.645V29.4162H101.505C102.917 29.4162 103.733 30.1321 103.733 31.1562C103.733 32.1456 102.873 32.8168 101.674 32.8168C100.571 32.8168 99.7106 32.25 99.6509 31.3452H98.0898C98.1545 33.0057 99.6261 34.1392 101.684 34.1392ZM111.007 34H112.544V30.147H114.632C114.666 30.147 114.696 30.147 114.731 30.147L116.799 34H118.549L116.292 29.8786C117.54 29.4162 118.161 28.3771 118.161 27.0099C118.161 25.1357 116.998 23.8182 114.637 23.8182H111.007V34ZM112.544 28.8246V25.1357H114.472C115.989 25.1357 116.615 25.8565 116.615 27.0099C116.615 28.1584 115.989 28.8246 114.492 28.8246H112.544ZM122.134 34.169C123.396 34.169 124.107 33.5277 124.391 32.956H124.45V34H125.902V28.929C125.902 26.7067 124.152 26.2642 122.939 26.2642C121.557 26.2642 120.284 26.821 119.787 28.2131L121.184 28.5312C121.403 27.9893 121.96 27.4673 122.959 27.4673C123.919 27.4673 124.411 27.9695 124.411 28.8345V28.8693C124.411 29.4112 123.854 29.4013 122.482 29.5604C121.035 29.7294 119.553 30.1072 119.553 31.8423C119.553 33.3438 120.682 34.169 122.134 34.169ZM122.457 32.9759C121.617 32.9759 121.01 32.598 121.01 31.8622C121.01 31.0668 121.716 30.7834 122.576 30.669C123.058 30.6044 124.202 30.4751 124.416 30.2614V31.2457C124.416 32.1506 123.695 32.9759 122.457 32.9759ZM131.447 26.3636H129.881V24.5341H128.394V26.3636H127.276V27.5568H128.394V32.0661C128.389 33.4531 129.448 34.1243 130.621 34.0994C131.094 34.0945 131.412 34.005 131.586 33.9403L131.317 32.7124C131.218 32.7322 131.034 32.777 130.795 32.777C130.313 32.777 129.881 32.6179 129.881 31.7578V27.5568H131.447V26.3636ZM133.091 34H134.578V26.3636H133.091V34ZM133.842 25.1854C134.354 25.1854 134.781 24.7876 134.781 24.3004C134.781 23.8132 134.354 23.4105 133.842 23.4105C133.325 23.4105 132.902 23.8132 132.902 24.3004C132.902 24.7876 133.325 25.1854 133.842 25.1854ZM138.064 29.4659C138.064 28.2479 138.81 27.5518 139.844 27.5518C140.853 27.5518 141.464 28.2131 141.464 29.3217V34H142.951V29.1428C142.951 27.2536 141.912 26.2642 140.351 26.2642C139.202 26.2642 138.452 26.7962 138.099 27.6065H138.004V26.3636H136.577V34H138.064V29.4659ZM148.146 37.0227C150.09 37.0227 151.592 36.1328 151.592 34.169V26.3636H150.135V27.6016H150.026C149.762 27.1293 149.235 26.2642 147.813 26.2642C145.969 26.2642 144.612 27.7209 144.612 30.152C144.612 32.5881 145.999 33.8857 147.803 33.8857C149.205 33.8857 149.747 33.0952 150.016 32.608H150.11V34.1094C150.11 35.3075 149.29 35.8246 148.161 35.8246C146.923 35.8246 146.441 35.2031 146.178 34.7656L144.9 35.2926C145.303 36.2273 146.322 37.0227 148.146 37.0227ZM148.131 32.6527C146.804 32.6527 146.113 31.6335 146.113 30.1321C146.113 28.6655 146.789 27.527 148.131 27.527C149.429 27.527 150.125 28.5859 150.125 30.1321C150.125 31.7081 149.414 32.6527 148.131 32.6527ZM159.308 28.228C158.999 27.0398 158.07 26.2642 156.419 26.2642C154.694 26.2642 153.471 27.174 153.471 28.5263C153.471 29.6101 154.127 30.331 155.559 30.6491L156.852 30.9325C157.587 31.0966 157.93 31.4247 157.93 31.902C157.93 32.4936 157.299 32.956 156.325 32.956C155.435 32.956 154.863 32.5732 154.684 31.8224L153.247 32.0412C153.496 33.3935 154.619 34.1541 156.335 34.1541C158.179 34.1541 159.457 33.1747 159.457 31.7926C159.457 30.7138 158.771 30.0476 157.369 29.7244L156.156 29.446C155.315 29.2472 154.952 28.9638 154.957 28.4467C154.952 27.8601 155.589 27.4425 156.434 27.4425C157.359 27.4425 157.786 27.9545 157.96 28.4666L159.308 28.228ZM167.759 34.1442C168.679 34.1442 169.698 33.8359 170.384 33.1946L171.07 34H172.751L171.304 32.2699C171.737 31.6932 172.149 30.7884 172.149 29.3764H170.807C170.807 30.0575 170.648 30.6641 170.384 31.1712L168.346 28.7351L169.042 28.223C169.887 27.6065 170.394 26.8956 170.394 25.9261C170.394 24.7379 169.435 23.7088 167.869 23.7088C166.317 23.7088 165.298 24.7081 165.298 26.1151C165.298 27.0249 165.776 27.7457 166.417 28.5263C165.254 29.3317 164.463 30.0824 164.463 31.2955C164.463 32.9311 165.711 34.1442 167.759 34.1442ZM169.549 32.2102C169.022 32.6477 168.391 32.8864 167.764 32.8864C166.661 32.8864 165.94 32.1357 165.94 31.2557C165.94 30.9425 166.203 30.3161 166.999 29.7294L167.267 29.5305L169.549 32.2102ZM167.526 27.7457C167.063 27.179 166.7 26.657 166.7 26.1399C166.7 25.5483 167.188 24.9517 167.903 24.9517C168.589 24.9517 169.037 25.4886 169.037 25.9659C169.037 26.5724 168.704 26.9403 168.152 27.3033L167.526 27.7457ZM177.6 34H184.302V32.6825H179.718V32.608L181.742 30.4901C183.606 28.6058 184.138 27.706 184.138 26.5675C184.138 24.9318 182.806 23.679 180.887 23.679C178.983 23.679 177.591 24.9119 177.591 26.7713H179.057C179.052 25.6776 179.758 24.9616 180.857 24.9616C181.891 24.9616 182.676 25.598 182.676 26.6122C182.676 27.5121 182.14 28.1584 181.046 29.3168L177.6 32.8864V34ZM189.731 34.1392C191.809 34.1392 193.336 32.8963 193.331 31.206C193.336 29.9183 192.555 28.9936 191.203 28.7848V28.7053C192.267 28.4318 192.958 27.5966 192.953 26.4531C192.958 24.9567 191.73 23.679 189.771 23.679C187.902 23.679 186.4 24.8075 186.35 26.4631H187.837C187.872 25.5284 188.752 24.9616 189.751 24.9616C190.79 24.9616 191.471 25.593 191.466 26.5327C191.471 27.517 190.681 28.1634 189.552 28.1634H188.692V29.4162H189.552C190.964 29.4162 191.779 30.1321 191.779 31.1562C191.779 32.1456 190.919 32.8168 189.721 32.8168C188.618 32.8168 187.757 32.25 187.698 31.3452H186.137C186.201 33.0057 187.673 34.1392 189.731 34.1392ZM199.054 34H200.59V30.147H202.678C202.713 30.147 202.743 30.147 202.778 30.147L204.846 34H206.596L204.339 29.8786C205.587 29.4162 206.208 28.3771 206.208 27.0099C206.208 25.1357 205.045 23.8182 202.683 23.8182H199.054V34ZM200.59 28.8246V25.1357H202.519C204.036 25.1357 204.662 25.8565 204.662 27.0099C204.662 28.1584 204.036 28.8246 202.539 28.8246H200.59ZM211.154 34.1541C212.819 34.1541 213.998 33.3338 214.336 32.0909L212.929 31.8374C212.66 32.5582 212.014 32.9261 211.169 32.9261C209.896 32.9261 209.041 32.1009 209.001 30.6293H214.43V30.1023C214.43 27.343 212.779 26.2642 211.049 26.2642C208.922 26.2642 207.52 27.8849 207.52 30.2315C207.52 32.603 208.902 34.1541 211.154 34.1541ZM209.006 29.5156C209.066 28.4318 209.851 27.4922 211.059 27.4922C212.213 27.4922 212.968 28.3473 212.973 29.5156H209.006ZM222.38 26.3636H220.784L218.855 32.2401H218.775L216.841 26.3636H215.245L218.02 34H219.61L222.38 26.3636ZM223.777 34H225.263V26.3636H223.777V34ZM224.527 25.1854C225.039 25.1854 225.467 24.7876 225.467 24.3004C225.467 23.8132 225.039 23.4105 224.527 23.4105C224.01 23.4105 223.588 23.8132 223.588 24.3004C223.588 24.7876 224.01 25.1854 224.527 25.1854ZM230.554 34.1541C232.22 34.1541 233.398 33.3338 233.736 32.0909L232.329 31.8374C232.061 32.5582 231.414 32.9261 230.569 32.9261C229.296 32.9261 228.441 32.1009 228.401 30.6293H233.83V30.1023C233.83 27.343 232.18 26.2642 230.45 26.2642C228.322 26.2642 226.92 27.8849 226.92 30.2315C226.92 32.603 228.302 34.1541 230.554 34.1541ZM228.406 29.5156C228.466 28.4318 229.252 27.4922 230.46 27.4922C231.613 27.4922 232.369 28.3473 232.374 29.5156H228.406ZM237.122 34H238.633L240.184 28.4865H240.298L241.85 34H243.366L245.608 26.3636H244.072L242.585 31.9467H242.511L241.019 26.3636H239.483L237.982 31.9716H237.907L236.411 26.3636H234.874L237.122 34ZM252.741 28.228C252.433 27.0398 251.503 26.2642 249.853 26.2642C248.127 26.2642 246.904 27.174 246.904 28.5263C246.904 29.6101 247.561 30.331 248.993 30.6491L250.285 30.9325C251.021 31.0966 251.364 31.4247 251.364 31.902C251.364 32.4936 250.733 32.956 249.758 32.956C248.868 32.956 248.297 32.5732 248.118 31.8224L246.681 32.0412C246.929 33.3935 248.053 34.1541 249.768 34.1541C251.613 34.1541 252.89 33.1747 252.89 31.7926C252.89 30.7138 252.204 30.0476 250.802 29.7244L249.589 29.446C248.749 29.2472 248.386 28.9638 248.391 28.4467C248.386 27.8601 249.022 27.4425 249.868 27.4425C250.792 27.4425 251.22 27.9545 251.394 28.4666L252.741 28.228Z" fill="#626262"/>
<rect width="74" height="38" rx="4" fill="#F4F4F4"/>
<path d="M13.8239 22.8409H19.375V25H21.3864V22.8409H22.875V21.108H21.3864V13.3636H18.7614L13.8239 21.1648V22.8409ZM19.3977 21.108H15.983V21.017L19.3068 15.75H19.3977V21.108ZM25.652 25.125C26.3224 25.125 26.8963 24.5682 26.902 23.875C26.8963 23.1932 26.3224 22.6364 25.652 22.6364C24.9588 22.6364 24.3963 23.1932 24.402 23.875C24.3963 24.5682 24.9588 25.125 25.652 25.125ZM32.9077 25.1591C35.3679 25.1591 37.0838 23.4886 37.0838 21.1761C37.0838 18.9375 35.527 17.3239 33.4134 17.3239C32.4702 17.3239 31.6349 17.6989 31.2031 18.2102H31.1349L31.4702 15.125H36.4759V13.3636H29.7259L29.1179 19.3636L31.0213 19.6761C31.4134 19.2443 32.152 18.9545 32.8509 18.9602C34.1293 18.9659 35.0497 19.9091 35.044 21.2273C35.0497 22.5284 34.152 23.4545 32.9077 23.4545C31.8565 23.4545 31.0099 22.7898 30.9361 21.8352H28.8906C28.9474 23.767 30.6349 25.1591 32.9077 25.1591Z" fill="#171520"/>
<path d="M52.3446 23.901L56.2849 26.3974C56.7886 26.7165 57.4139 26.2419 57.2644 25.654L56.126 21.1756C56.0939 21.0509 56.0977 20.9197 56.137 20.797C56.1762 20.6743 56.2492 20.5652 56.3477 20.4822L59.8811 17.5413C60.3453 17.1549 60.1057 16.3844 59.5092 16.3457L54.8949 16.0462C54.7706 16.0373 54.6514 15.9933 54.5511 15.9193C54.4509 15.8453 54.3737 15.7443 54.3286 15.6282L52.6076 11.2944C52.5609 11.1711 52.4777 11.0649 52.3692 10.99C52.2606 10.9151 52.1319 10.875 52 10.875C51.8681 10.875 51.7394 10.9151 51.6309 10.99C51.5223 11.0649 51.4391 11.1711 51.3924 11.2944L49.6714 15.6282C49.6263 15.7443 49.5491 15.8453 49.4489 15.9193C49.3486 15.9933 49.2294 16.0373 49.1052 16.0462L44.4908 16.3457C43.8943 16.3844 43.6547 17.1549 44.1189 17.5413L47.6523 20.4822C47.7508 20.5652 47.8238 20.6743 47.863 20.797C47.9023 20.9197 47.9061 21.0509 47.874 21.1756L46.8182 25.3288C46.6389 26.0343 47.3893 26.6038 47.9937 26.2209L51.6554 23.901C51.7584 23.8354 51.8779 23.8006 52 23.8006C52.1221 23.8006 52.2416 23.8354 52.3446 23.901Z" fill="#FF8C4B" stroke="#FF8C4B" stroke-width="2" stroke-linecap="round" stroke-linejoin="round"/>
</svg>
