<svg width="152" height="24" viewBox="0 0 152 24" fill="none" xmlns="http://www.w3.org/2000/svg">
<path d="M12.4135 17.8812L17.1419 20.8769C17.7463 21.2598 18.4967 20.6903 18.3173 19.9847L16.9512 14.6108C16.9127 14.4611 16.9173 14.3036 16.9643 14.1564C17.0114 14.0092 17.0991 13.8783 17.2172 13.7787L21.4573 10.2496C22.0144 9.78588 21.7269 8.86126 21.0111 8.81481L15.4738 8.45544C15.3247 8.44479 15.1816 8.39198 15.0613 8.30317C14.941 8.21437 14.8484 8.09321 14.7943 7.95382L12.7292 2.75323C12.673 2.60528 12.5732 2.4779 12.443 2.38802C12.3127 2.29814 12.1582 2.25 12 2.25C11.8418 2.25 11.6873 2.29814 11.557 2.38802C11.4268 2.4779 11.327 2.60528 11.2708 2.75323L9.20568 7.95382C9.15157 8.09321 9.05897 8.21437 8.93868 8.30317C8.81838 8.39198 8.67533 8.44479 8.52618 8.45544L2.98894 8.81481C2.27315 8.86126 1.9856 9.78588 2.54272 10.2496L6.78278 13.7787C6.90095 13.8783 6.9886 14.0092 7.03566 14.1564C7.08272 14.3036 7.08727 14.4611 7.0488 14.6108L5.78188 19.5945C5.56667 20.4412 6.46715 21.1246 7.19243 20.6651L11.5865 17.8812C11.71 17.8025 11.8535 17.7607 12 17.7607C12.1465 17.7607 12.29 17.8025 12.4135 17.8812Z" fill="#FF8C4B" stroke="#FF8C4B" stroke-width="2" stroke-linecap="round" stroke-linejoin="round"/>
<path d="M44.4135 17.8812L49.1419 20.8769C49.7463 21.2598 50.4967 20.6903 50.3173 19.9847L48.9512 14.6108C48.9127 14.4611 48.9173 14.3036 48.9643 14.1564C49.0114 14.0092 49.0991 13.8783 49.2172 13.7787L53.4573 10.2496C54.0144 9.78588 53.7269 8.86126 53.0111 8.81481L47.4738 8.45544C47.3247 8.44479 47.1816 8.39198 47.0613 8.30317C46.941 8.21437 46.8484 8.09321 46.7943 7.95382L44.7292 2.75323C44.673 2.60528 44.5732 2.4779 44.443 2.38802C44.3127 2.29814 44.1582 2.25 44 2.25C43.8418 2.25 43.6873 2.29814 43.557 2.38802C43.4268 2.4779 43.327 2.60528 43.2708 2.75323L41.2057 7.95382C41.1516 8.09321 41.059 8.21437 40.9387 8.30317C40.8184 8.39198 40.6753 8.44479 40.5262 8.45544L34.9889 8.81481C34.2732 8.86126 33.9856 9.78588 34.5427 10.2496L38.7828 13.7787C38.9009 13.8783 38.9886 14.0092 39.0357 14.1564C39.0827 14.3036 39.0873 14.4611 39.0488 14.6108L37.7819 19.5945C37.5667 20.4412 38.4672 21.1246 39.1924 20.6651L43.5865 17.8812C43.71 17.8025 43.8535 17.7607 44 17.7607C44.1465 17.7607 44.29 17.8025 44.4135 17.8812Z" fill="#FF8C4B" stroke="#FF8C4B" stroke-width="2" stroke-linecap="round" stroke-linejoin="round"/>
<path d="M76.4135 17.8812L81.1419 20.8769C81.7463 21.2598 82.4967 20.6903 82.3173 19.9847L80.9512 14.6108C80.9127 14.4611 80.9173 14.3036 80.9643 14.1564C81.0114 14.0092 81.0991 13.8783 81.2172 13.7787L85.4573 10.2496C86.0144 9.78588 85.7269 8.86126 85.0111 8.81481L79.4738 8.45544C79.3247 8.44479 79.1816 8.39198 79.0613 8.30317C78.941 8.21437 78.8484 8.09321 78.7943 7.95382L76.7292 2.75323C76.673 2.60528 76.5732 2.4779 76.443 2.38802C76.3127 2.29814 76.1582 2.25 76 2.25C75.8418 2.25 75.6873 2.29814 75.557 2.38802C75.4268 2.4779 75.327 2.60528 75.2708 2.75323L73.2057 7.95382C73.1516 8.09321 73.059 8.21437 72.9387 8.30317C72.8184 8.39198 72.6753 8.44479 72.5262 8.45544L66.9889 8.81481C66.2732 8.86126 65.9856 9.78588 66.5427 10.2496L70.7828 13.7787C70.9009 13.8783 70.9886 14.0092 71.0357 14.1564C71.0827 14.3036 71.0873 14.4611 71.0488 14.6108L69.7819 19.5945C69.5667 20.4412 70.4672 21.1246 71.1924 20.6651L75.5865 17.8812C75.71 17.8025 75.8535 17.7607 76 17.7607C76.1465 17.7607 76.29 17.8025 76.4135 17.8812Z" fill="#FF8C4B" stroke="#FF8C4B" stroke-width="2" stroke-linecap="round" stroke-linejoin="round"/>
<path d="M108.414 17.8812L113.142 20.8769C113.746 21.2598 114.497 20.6903 114.317 19.9847L112.951 14.6108C112.913 14.4611 112.917 14.3036 112.964 14.1564C113.011 14.0092 113.099 13.8783 113.217 13.7787L117.457 10.2496C118.014 9.78588 117.727 8.86126 117.011 8.81481L111.474 8.45544C111.325 8.44479 111.182 8.39198 111.061 8.30317C110.941 8.21437 110.848 8.09321 110.794 7.95382L108.729 2.75323C108.673 2.60528 108.573 2.4779 108.443 2.38802C108.313 2.29814 108.158 2.25 108 2.25C107.842 2.25 107.687 2.29814 107.557 2.38802C107.427 2.4779 107.327 2.60528 107.271 2.75323L105.206 7.95382C105.152 8.09321 105.059 8.21437 104.939 8.30317C104.818 8.39198 104.675 8.44479 104.526 8.45544L98.9889 8.81481C98.2732 8.86126 97.9856 9.78588 98.5427 10.2496L102.783 13.7787C102.901 13.8783 102.989 14.0092 103.036 14.1564C103.083 14.3036 103.087 14.4611 103.049 14.6108L101.782 19.5945C101.567 20.4412 102.467 21.1246 103.192 20.6651L107.586 17.8812C107.71 17.8025 107.854 17.7607 108 17.7607C108.147 17.7607 108.29 17.8025 108.414 17.8812Z" fill="#FF8C4B" stroke="#FF8C4B" stroke-width="2" stroke-linecap="round" stroke-linejoin="round"/>
<path d="M140.414 17.8812L145.142 20.8769C145.746 21.2598 146.497 20.6903 146.317 19.9847L144.951 14.6108C144.913 14.4611 144.917 14.3036 144.964 14.1564C145.011 14.0092 145.099 13.8783 145.217 13.7787L149.457 10.2496C150.014 9.78588 149.727 8.86126 149.011 8.81481L143.474 8.45544C143.325 8.44479 143.182 8.39198 143.061 8.30317C142.941 8.21437 142.848 8.09321 142.794 7.95382L140.729 2.75323C140.673 2.60528 140.573 2.4779 140.443 2.38802C140.313 2.29814 140.158 2.25 140 2.25C139.842 2.25 139.687 2.29814 139.557 2.38802C139.427 2.4779 139.327 2.60528 139.271 2.75323L137.206 7.95382C137.152 8.09321 137.059 8.21437 136.939 8.30317C136.818 8.39198 136.675 8.44479 136.526 8.45544L130.989 8.81481C130.273 8.86126 129.986 9.78588 130.543 10.2496L134.783 13.7787C134.901 13.8783 134.989 14.0092 135.036 14.1564C135.083 14.3036 135.087 14.4611 135.049 14.6108L133.782 19.5945C133.567 20.4412 134.467 21.1246 135.192 20.6651L139.586 17.8812C139.71 17.8025 139.854 17.7607 140 17.7607C140.147 17.7607 140.29 17.8025 140.414 17.8812Z" fill="#B6B6B6" stroke="#B6B6B6" stroke-width="2" stroke-linecap="round" stroke-linejoin="round"/>
</svg>
